<?xml version="1.0" encoding="utf-8"?>
<!-- Generator: Adobe Illustrator 25.2.1, SVG Export Plug-In . SVG Version: 6.00 Build 0)  -->
<svg version="1.1" id="Capa_1" xmlns="http://www.w3.org/2000/svg" xmlns:xlink="http://www.w3.org/1999/xlink" x="0px" y="0px"
	 viewBox="0 0 512 512" style="enable-background:new 0 0 512 512;" xml:space="preserve">
<g>
	<g>
		<path d="M312.2,412.4c-11.9,0-24.5-1.3-37.6-3.8c-3.1-0.6-5.5-3-6.1-6.1c-0.8-3.7-4.1-22.4,4.7-32.2c1-1.2,2.4-2.4,4.2-3.4
			c-2.2-2.8-5.7-4-10.5-3.9c-6.1,2.1-17.1,2.6-26.6-6.9c-3-3-3-7.9,0-11c3-3,7.9-3,11,0c4.9,4.9,9.6,3.5,10.7,3.1
			c0.9-0.5,1.6-0.6,2.6-0.7c21-1.6,30,13.6,30.8,24.2c0.2,2.3-0.6,4.5-2.3,6.1c-1.6,1.6-3.9,2.4-6.2,2.2c-1.7-0.1-2.1,0.3-2.3,0.5
			c-1.8,2-2.3,8-1.8,13.7c51.5,8.6,81.5-6.1,97.7-20.2c15.5-13.5,20.6-28.3,20.8-32c-2.1-5.4-0.3-9.3,1-11.3c2.4-3.5,6.3-5.2,10.1-6
			l-0.6-22.9c-0.1-2.1,0.8-4.2,2.3-5.7l23.2-23.2c0.5-0.6,0.7-0.9,0.7-1c-0.4-2.1-6.6-6.9-13.6-9.7c-3.2-1.3-5.1-4.5-4.8-7.9
			c0.3-2.7,1.9-5.1,4.3-6.3c-0.2-3.7-3.4-12.5-7.3-19.5c-1.6-2.9-1.2-6.5,1-8.9c-0.3-0.7-0.9-1.5-1.5-2.3c-1,1.2-2.2,2.2-3.5,3
			c-5.2,3.1-11.2,1.9-17,0.2c-11.7-3.5-14.3-18.6-14.8-22.5c-0.5-2.5-1.5-10.8,4.5-15.3c1.5-1.1,3.1-1.8,4.9-2.1
			c-0.2-0.5-0.3-0.9-0.4-1.1c-0.4,0.1-1,0.2-1.4,0.3c-2.7,0.6-7.8,1.7-11.8-2.2c-4.1-4.1-3.8-10.2-2-18.9c1.4-6.7,1-11.7-1-13.8
			c-2.2-2.2-7.8-2.6-14.5-1.1c-8.9,2-24.2-7.2-32.5-12.8c-1.1-0.8-2.1-1.8-2.6-3.1c-1.1-2.2-3.7-5.6-5.7-6.2
			c-0.3-0.1-0.9-0.2-2.4,0.7c-13.9,9.3-24.5,3-28.2-1.6l12.1-9.7c0,0-0.1-0.1-0.2-0.3c0.5,0.5,2.7,2,7.7-1.4
			c6.1-4.1,11.6-3.8,15.1-2.8c7.5,2.1,12.4,8.9,14.5,12.4c7.6,5,16.3,9.3,19.1,9.4c8.7-1.9,20.7-2.5,28.5,5.3
			c6.2,6.1,7.9,15.5,5.3,28c-0.2,0.7-0.3,1.4-0.4,2c2.9-0.2,6.3,0.3,9.6,2.8c5.1,3.9,7.6,11.2,8.1,23.6c0.1,2.8-1.3,5.5-3.7,6.9
			c-2.1,1.3-4.7,1.5-6.9,0.6c0.8,3.9,2.5,7.4,3.5,7.9c2.1,0.6,3.4,0.9,4.2,1c1-4.4,4.5-7.3,8.9-7.6c7.5-0.5,16.5,8.1,19.3,15.8
			c1.3,3.7,1.3,7.3,0.1,10.4c3.6,7.3,8.1,18.6,6.5,27c5.8,3.6,12.5,9.1,14.1,16.3c1.2,5.3-0.5,10.6-4.6,15.1
			c-0.1,0.1-0.1,0.1-0.2,0.2l-20.9,20.9l0.7,27c0.1,2.2-0.8,4.2-2.3,5.8c-1.5,1.5-3.7,2.3-5.8,2.2c-1,0-2.2,0-3.3,0.1
			c1.1,9-5.7,22.9-14,33.4c-7.8,9.9-22,23.5-45.2,31.8C343.9,409.9,328.7,412.4,312.2,412.4z"/>
	</g>
	<g>
		<path d="M190.4,372.9c-4,0-8.3-0.8-12.2-1.9c-21.7-5.8-46.7-23.3-50.1-53.9c-6.6-1.2-16-4.3-20.7-11.9c-2.5-4.1-4.6-11-0.6-20.7
			c0-2.3,0.1-6.5,0.7-10.9c1.2-8.7,4-14.5,8.3-17.2c-0.7-2.1-2.1-5.1-3.6-8l-20.1-1.9c-3.7-0.4-6.6-3.3-7-7L83.8,226
			c-2.7-2.8-7.7-8.2-12.6-14.5c-10.6-13.8-14.6-24.6-12.3-33c0.9-3.2,1.6-5.6,2.2-7.1c2.7-6.9,7.6-6.8,9.6-6.4
			c1.8,0.3,5.5,1.6,6.4,6.8l23.6,22.9c3.4,1,10.9,3.4,18.7,6.2c12.8,4.6,19.4,8,22.9,11c2.1-1.3,4.9-3.2,7.2-4.8
			c6.2-4.2,13.9-9.5,22.3-13.3c12.9-5.9,9.6-27.2,9.6-27.4c-0.1-0.7-0.1-1.4-0.1-2c0-0.5,1.2-12.6,3.9-25
			c3.1-14.1,8.1-30.2,20.1-30.2c2.9,0,10.9-2.8,17.3-5.1c7.4-2.6,15.1-5.4,21.8-6.7c13.6-2.6,18.8,2.5,20.9,7.2
			c1.7,3.9-0.1,8.5-4.1,10.2c-3.4,1.5-7.3,0.3-9.4-2.6c-4.5-0.4-17,4.1-23.9,6.5c-8.4,3-15.7,5.6-21.2,6c-1,1.3-4,6.2-6.9,21.2
			c-1.7,8.5-2.6,16.4-2.9,19c0.8,6,3,33.1-18.6,42.9c-7.3,3.3-14.4,8.2-20.1,12.1c-9.2,6.3-14.8,10.1-20.8,8.2
			c-2.4-0.8-4.4-2.5-5.6-4.8c-4-3.2-22.2-9.9-37.4-14.3c-1.2-0.4-2.3-1-3.2-1.9l-13-12.7c1.3,2.1,3,4.6,5.2,7.5
			c6.3,8.2,13.2,14.9,13.2,15c1.3,1.3,2.1,3,2.3,4.8l0.9,9.9l17.7,1.7c2.4,0.2,4.6,1.6,5.9,3.7c0.1,0.2,2.6,4.2,4.7,8.9
			c3.8,8.3,4.6,13.9,2.5,18.3c-1.3,2.8-3.6,4.7-6.5,5.6c-1.2,2.6-2.1,9.9-1.9,16.1c0,1.2-0.2,2.4-0.7,3.5c-1.1,2.4-2.2,5.7-1,7.6
			c2.1,3.4,10.3,5.2,15.1,5.4c4.2,0.1,7.6,3.6,7.6,7.8c0,14.1,5.8,25.9,17.2,35c8.5,6.7,17.6,10.1,24,11.4c0.1-1.8,0.7-3.2,1.3-4.2
			c4-6.6,13-5.1,22.7-2.8c6.7,1.6,13,3.6,13.2,3.6c4.1,1.3,6.3,5.7,5,9.8c-1.3,4.1-5.7,6.3-9.8,5c-4.6-1.5-9.5-2.8-13.6-3.7
			c-0.2,1.2-0.6,2.2-1.1,3.1C200.1,371.6,195.5,372.9,190.4,372.9z"/>
	</g>
</g>
</svg>
